# xmcd CD database file
#
# Track frame offsets:
#	150
#	28255
#	43014
#	61766
#	87128
#	100292
#	119070
#	138272
#	158172
#	177935
#	190184
#	211946
#	223753
#
# Disc length: 3104 seconds
#
# Revision: 0
# Processed by: cddbd v1.5.1PL2 Copyright (c) Steve Scherf et al.
# Submitted via: CDex 1.51
#
DISCID=b90c1e0d
DTITLE=PAULA MacASKILL - FLOWER OF SCOTLAND
DYEAR=1900
DGENRE=Country
TTITLE0=MEDLEY - THESE ARE MY MOUNTAINS - A GORDON FOR ME - LOVELY STORNAWAY - DANCING IN KYLE LEEZIOE LINDSAY - LOCH TAE BOAT SONG
TTITLE1=OLD SCOTTISH SONG
TTITLE2=MEDLEY - LIGHT OF LOCHINDAAL - ROWAN TREE - HIKING SONG - ROSES OF PRINCE CHARLIE - WILL YE COME BACK AGAIN
TTITLE3=MEDLEY - MAGGIE - FAREWELL MY LOVE - DUMBARTON'S DRUMS
TTITLE4=FLOWER OF SCOTLAND
TTITLE5=NOBODY'S CHILD
TTITLE6=MEDLEY - MULL OF KINTYRE - SKYE BOAT SONG - SKYLINE OF SKYE
TTITLE7=MEDLEY - JOCK O'HAZELDEAN - WILD MOUNTAIN THYME - MY LOVE IS LIKE A RED ROSE - COMIN THRO THR RYE
TTITLE8=MASSACRE SCAPAFLOW
TTITLE9=LONELY SCAPAFLOW
TTITLE10=MEDLEY - LOCH LOMOND - I BELONG TO GLASGOW - NORTHERN LIGHTS OF ILD ABERDEEN - MANY A DAY
TTITLE11=LOCH MAREE
TTITLE12=DDDDDD
EXTD=
EXTT0=
EXTT1=
EXTT2=
EXTT3=
EXTT4=
EXTT5=
EXTT6=
EXTT7=
EXTT8=
EXTT9=
EXTT10=
EXTT11=
EXTT12=
PLAYORDER=
